<?xml version="1.0" standalone="no"?>
<!DOCTYPE svg PUBLIC "-//W3C//DTD SVG 20010904//EN"
 "http://www.w3.org/TR/2001/REC-SVG-20010904/DTD/svg10.dtd">
<svg version="1.0" xmlns="http://www.w3.org/2000/svg"
 width="180.000000pt" height="180.000000pt" viewBox="0 0 180.000000 180.000000"
 preserveAspectRatio="xMidYMid meet">
<metadata>
Created by potrace 1.11, written by Peter Selinger 2001-2013
</metadata>
<g transform="translate(0.000000,180.000000) scale(0.100000,-0.100000)"
fill="#000000" stroke="none">
<path d="M170 950 l0 -190 735 0 735 0 0 190 0 190 -735 0 -735 0 0 -190z
m646 111 c78 -36 104 -102 65 -167 -24 -40 -77 -64 -141 -64 -105 0 -177 74
-150 155 26 78 138 116 226 76z m-275 -20 c40 -40 38 -75 -5 -116 -39 -37 -37
-45 11 -45 29 0 33 -3 33 -25 0 -18 -5 -25 -20 -25 -31 0 -82 24 -104 49 -14
15 -31 21 -63 21 -23 0 -43 -4 -43 -10 0 -5 14 -10 30 -10 25 0 30 -4 30 -25
0 -25 -1 -25 -85 -25 -84 0 -85 0 -85 25 0 21 5 25 30 25 l30 0 0 75 0 75 -30
0 c-23 0 -30 4 -30 20 0 19 7 20 136 20 l136 0 29 -29z m639 10 c0 -14 -8 -21
-29 -23 l-30 -3 42 -72 c41 -73 41 -73 84 -73 l43 0 0 75 0 75 -35 0 c-29 0
-35 4 -35 21 0 20 4 20 134 17 154 -3 180 -14 205 -84 20 -56 -4 -105 -64
-134 -39 -19 -58 -20 -216 -18 -166 3 -174 4 -174 23 0 13 8 21 23 23 12 2 22
8 22 13 0 12 -137 12 -145 -1 -4 -6 5 -10 19 -10 21 0 26 -5 26 -25 0 -25 -1
-25 -85 -25 -84 0 -85 0 -85 25 0 22 4 25 33 25 31 0 36 6 75 73 l42 72 -30 3
c-22 2 -30 8 -30 23 0 18 8 19 105 19 97 0 105 -1 105 -19z"/>
<path d="M700 1029 c-38 -16 -70 -50 -70 -75 0 -66 105 -107 177 -69 52 28 59
93 13 126 -32 23 -88 31 -120 18z"/>
<path d="M350 985 l0 -45 66 0 c77 0 104 12 104 45 0 33 -27 45 -104 45 l-66
0 0 -45z"/>
<path d="M1330 955 l0 -75 69 0 c79 0 121 23 121 66 0 59 -42 84 -136 84 l-54
0 0 -75z"/>
<path d="M1052 979 l-23 -39 46 0 46 0 -15 28 c-29 52 -30 52 -54 11z"/>
<path d="M240 665 c0 -8 9 -15 20 -15 17 0 20 -7 20 -50 0 -43 3 -50 20 -50
17 0 20 7 20 50 0 43 3 50 20 50 11 0 20 7 20 15 0 12 -13 15 -60 15 -47 0
-60 -3 -60 -15z"/>
<path d="M407 668 c-27 -22 -31 -61 -7 -91 25 -31 63 -36 98 -11 26 18 30 74
6 98 -19 19 -74 21 -97 4z m73 -37 c14 -28 -13 -55 -41 -41 -22 12 -25 30 -7
48 18 18 36 15 48 -7z"/>
<path d="M636 658 c-34 -48 -4 -108 53 -108 35 0 62 27 41 40 -9 5 -20 5 -27
-2 -18 -15 -45 9 -41 36 2 17 10 21 38 21 24 0 35 5 35 15 0 10 -13 16 -42 18
-33 2 -44 -1 -57 -20z"/>
<path d="M790 615 c0 -51 3 -65 15 -65 9 0 15 9 15 25 0 20 5 25 25 25 20 0
25 -5 25 -25 0 -16 6 -25 15 -25 12 0 15 14 15 65 0 50 -3 65 -14 65 -8 0 -16
-10 -18 -22 -2 -15 -10 -23 -23 -23 -13 0 -21 8 -23 23 -2 12 -10 22 -18 22
-11 0 -14 -15 -14 -65z"/>
<path d="M970 628 c-12 -29 -24 -59 -27 -65 -3 -8 3 -13 15 -13 11 0 22 7 26
15 3 8 14 15 24 15 11 0 25 -7 32 -15 14 -17 40 -20 40 -5 0 5 -11 34 -24 65
-33 73 -55 74 -86 3z m50 -14 c0 -8 -5 -12 -10 -9 -6 4 -8 11 -5 16 9 14 15
11 15 -7z"/>
<path d="M1120 615 c0 -58 2 -65 20 -65 16 0 20 7 20 33 1 30 1 31 15 13 15
-20 15 -20 30 0 14 18 14 17 15 -13 0 -26 4 -33 20 -33 18 0 20 7 20 65 0 58
-2 65 -20 65 -11 0 -25 -9 -32 -20 -7 -11 -16 -20 -20 -20 -4 0 -10 9 -13 20
-4 13 -15 20 -31 20 -23 0 -24 -3 -24 -65z"/>
<path d="M1310 615 c0 -49 3 -65 14 -65 7 0 16 8 19 18 2 11 17 22 35 25 23 5
33 14 38 32 9 37 -11 55 -62 55 l-44 0 0 -65z m70 20 c0 -8 -9 -15 -20 -15
-11 0 -20 7 -20 15 0 8 9 15 20 15 11 0 20 -7 20 -15z"/>
<path d="M1467 673 c-4 -3 -7 -17 -7 -31 0 -17 8 -27 30 -35 36 -14 40 -32 5
-23 -33 9 -50 -1 -34 -20 14 -17 71 -18 87 -2 25 25 14 55 -25 71 -30 13 -33
16 -13 14 29 -2 53 10 45 24 -7 10 -78 12 -88 2z"/>
</g>
</svg>
